<svg width="50" height="32" viewBox="0 0 50 32" fill="none" xmlns="http://www.w3.org/2000/svg">
<path fill-rule="evenodd" clip-rule="evenodd" d="M40.5 12.6965C37.8846 13.8507 36.3846 16.597 36.6154 19.3831C36.6538 19.4229 36.6538 19.5025 36.6538 19.5423C36.7692 19.7811 37 19.8607 37.2308 19.7811C37.3846 19.7015 37.5 19.5025 37.4615 19.3035C37.2692 16.8756 38.5769 14.4876 40.8462 13.4925C41.9615 12.9751 43.1538 12.8955 44.2692 13.1741C45.2308 13.4129 46.0769 14.0896 46.5 15.0846C46.8846 16.0796 46.8077 17.1542 46.3462 18.0299H46.3077C46.1538 18.3483 45.8462 18.5871 45.5 18.7463C44.8077 19.0647 44.0385 18.8657 43.5769 18.3085C43.5385 18.2289 43.5 18.1891 43.4615 18.1095C43.3077 17.7114 43.4615 17.2736 43.8462 17.0746H43.8846C43.9615 17.0348 44.0385 17.0746 44.0769 17.1542C44.1154 17.2736 44.0769 17.3532 44 17.393V17.4328C43.8462 17.5124 43.8077 17.7114 43.8462 17.9104C43.9615 18.1095 44.1923 18.2289 44.3846 18.1493V18.1095V18.1493C44.8462 17.9104 45.0385 17.3134 44.8462 16.8358C44.6154 16.3184 44.0385 16.0796 43.5385 16.3184V16.2786C42.7308 16.6368 42.3462 17.6318 42.6923 18.4677C42.7692 18.5871 42.8462 18.7463 42.9615 18.8657C43.6538 19.7015 44.8077 20.0199 45.8462 19.5423C46.3462 19.3433 46.7692 18.9453 47.0385 18.5075C47.6538 17.393 47.7692 16.0398 47.2692 14.7662C46.7308 13.4925 45.6923 12.6567 44.4615 12.3383C43.1923 12.0199 41.8077 12.0995 40.5 12.6965ZM4.11538 3.74129H3.46154V4.89552H4.03846C4.5 4.89552 4.73077 4.69652 4.73077 4.29851C4.73077 3.9403 4.5 3.74129 4.11538 3.74129ZM4.65385 2.58706C4.65385 2.22886 4.42308 2.02985 4 2.02985H3.46154V3.14428H4.11538C4.42308 3.10448 4.65385 2.90547 4.65385 2.58706ZM2.42308 26.3881H3.42308L4.15385 28.1393L4.34615 28.6965L4.5 28.1393L5.19231 26.3881H6.19231L6.23077 30.5672H5.38462V28.8557L5.46154 27.5025L4.61538 29.6915H4.03846L3.19231 27.5025L3.26923 28.8557V30.5672H2.42308V26.3881ZM14.1538 26.7065C14.1538 26.6269 14.1923 26.5473 14.2308 26.5075C14.3077 26.4279 14.3846 26.4279 14.4615 26.4279H16.9231V27.1045H15.0385V28.1393H16.5V28.8159H15.0385V29.8905H16.9231V30.607H14.4615C14.3846 30.607 14.3077 30.607 14.2308 30.5274C14.1538 30.4478 14.1538 30.3682 14.1538 30.2886V26.7065ZM24.6923 26.6667C24.6923 26.5871 24.6923 26.5075 24.7692 26.4677C24.8462 26.3881 24.9231 26.3881 25 26.3881H26.0769C27.3077 26.3881 27.8462 27.1443 27.8462 28.4975C27.8462 29.8507 27.3077 30.607 26.0769 30.607H25C24.9231 30.607 24.8077 30.607 24.7692 30.5274C24.7308 30.4876 24.6923 30.408 24.6923 30.3284V26.6667ZM35.6154 26.3881H36.5V30.5672H35.6154V26.3881ZM45.2692 26.3881H46.3077L47.5385 30.607H46.6538L45.7692 27.3433L44.9231 30.607H44L45.2692 26.3881ZM0 32H50V25.0348H0V32ZM3.5 18.6269V13.8905L11.1923 16.2388L3.5 18.6269ZM12.6154 15.8806C12.5385 15.8408 12.4615 15.801 12.3462 15.7612L3.26923 12.8159C3.23077 12.8159 3.15385 12.7761 3.11538 12.7761H3.07692C2.96154 12.7761 2.84615 12.8159 2.73077 12.8955C2.65385 12.9751 2.61538 13.0945 2.61538 13.2139V19.2239C2.61538 19.3433 2.65385 19.4627 2.73077 19.5423C2.84615 19.6219 2.96154 19.6617 3.07692 19.6617L12.3846 16.6766V16.6368C12.4615 16.6368 12.5385 16.597 12.6154 16.5174C12.7692 16.3582 12.7692 16.0796 12.6154 15.8806ZM47.3846 2.06965H45.5V3.10448H46.9615V3.78109H45.5V4.85572H47.3846V5.57214H44.8846C44.8077 5.57214 44.7308 5.57214 44.6923 5.49254C44.6154 5.41294 44.6154 5.33333 44.6154 5.25373V1.67164C44.6154 1.59204 44.6154 1.51244 44.6923 1.47264C44.7692 1.39303 44.8462 1.39303 44.9231 1.39303H47.3846V2.06965ZM33.3462 3.58209C33.3462 4.81592 33.1154 5.61194 31.7692 5.61194C30.4231 5.61194 30.1538 4.81592 30.1538 3.58209V1.39303H31.0385V3.58209C31.0385 4.45771 31.1538 4.93532 31.7692 4.93532C32.3462 4.93532 32.4615 4.45771 32.4615 3.58209V1.39303H33.3462V3.58209ZM19.3077 5.57214H17.0385C16.9615 5.57214 16.8846 5.53234 16.8462 5.49254C16.8077 5.45274 16.7692 5.37313 16.7692 5.29353V1.39303H17.6154V4.81592H19.3077V5.57214ZM4.07692 5.57214H2.84615C2.76923 5.57214 2.69231 5.53234 2.65385 5.49254C2.57692 5.41294 2.57692 5.33333 2.57692 5.25373V1.71144C2.57692 1.63184 2.57692 1.55224 2.65385 1.47264C2.69231 1.39303 2.80769 1.39303 2.88462 1.39303H4.07692C5.03846 1.39303 5.5 1.83085 5.5 2.50746C5.5 2.86567 5.30769 3.18408 5.03846 3.34328C5.38462 3.50249 5.65385 3.9005 5.65385 4.33831C5.65385 5.01493 5.19231 5.57214 4.07692 5.57214ZM0 0V6.96517H50V0H0ZM26.0385 17.194L26.9615 20.0597L24.5769 18.3085L22.2692 20.0995L23.1538 17.2338L20.8077 15.4428H23.7308L24.6154 12.5771L25.5 15.4428H28.3846L26.0385 17.194ZM30.0385 14.7264C29.9615 14.607 29.8077 14.5672 29.6538 14.607H26.1154L25.0385 11.1045C25 11.0249 24.9615 10.9453 24.9231 10.8657C24.7308 10.7065 24.4615 10.7065 24.3077 10.8657C24.2308 10.9453 24.1923 11.0249 24.1923 11.1045L23.0769 14.607H19.5C19.3846 14.607 19.2308 14.6468 19.1538 14.7264C19 14.9254 19 15.204 19.1538 15.3632C19.1923 15.403 19.2308 15.4428 19.2692 15.4428L22.1538 17.592L21 21.1741L21.0385 21.2139C20.9615 21.3333 21 21.5323 21.1154 21.6517C21.3077 21.8109 21.5769 21.8109 21.7308 21.6517L24.5769 19.4627L27.5385 21.6517C27.6923 21.7711 27.9231 21.7711 28.0769 21.6119C28.2308 21.4925 28.2692 21.2537 28.1538 21.0945L27.0769 17.592L30.0385 15.3632C30.2308 15.204 30.2308 14.8856 30.0385 14.7264ZM26.9231 28.4975C26.9231 27.5423 26.6923 27.1045 26.0769 27.1045H25.5769V29.8905H26.0769C26.6923 29.8905 26.9231 29.4527 26.9231 28.4975Z" fill="#006EC7"/>
</svg>
