<svg width="45" height="29" viewBox="0 0 45 29" fill="none" xmlns="http://www.w3.org/2000/svg">
<g clip-path="url(#clip0_5093_118710)">
<path d="M0 0H45V28.7118H0V0Z" fill="#FFCB01"/>
<path d="M8.36175 10.9306L6.96826 12.824H14.563C14.9471 12.824 14.9423 12.9686 14.7546 13.2243C14.5637 13.4825 14.245 13.9301 14.0507 14.1935C13.952 14.3267 13.7739 14.5689 14.3638 14.5689H17.4698L18.3906 13.3183C18.9613 12.5435 18.4404 10.9316 16.3995 10.9316L8.3622 10.9306H8.36175Z" fill="#D80613"/>
<path d="M6.40436 17.0993L9.20368 13.2953H12.6774C13.0614 13.2953 13.0567 13.4412 12.869 13.6956L12.1602 14.6612C12.0615 14.7944 11.8834 15.0366 12.4734 15.0366H17.126C16.7402 15.5666 15.4836 17.0993 13.2314 17.0993H6.40436ZM22.4348 15.0355L20.9168 17.0993H16.9125L18.4303 15.0355H22.4348ZM28.5682 14.5681H18.7753L21.4531 10.9306H25.4555L23.9212 13.0166H25.7073L27.2435 10.9306H31.2459L28.5682 14.5681ZM28.2244 15.0355L26.7059 17.0993H22.704L24.2219 15.0355H28.2244ZM0.691406 15.8496H6.58907L6.26726 16.2875H0.691406V15.8496ZM0.691406 15.0355H7.18868L6.86597 15.4734H0.691406V15.0355ZM0.691406 16.6636H5.99058L5.66966 17.0993H0.691406V16.6636ZM44.3094 16.2873H38.4327L38.7554 15.8493H44.3093L44.3094 16.2873ZM44.3094 17.0994H37.836L38.1559 16.6636H44.3093L44.3094 17.0994ZM39.3542 15.0355H44.3095V15.4741H39.032L39.3542 15.0355ZM36.7893 10.9306L34.1115 14.568H29.8697L32.5494 10.9306H36.7893ZM29.5268 15.0355C29.5268 15.0355 29.2348 15.4358 29.092 15.6273C28.5902 16.3074 29.0336 17.0983 30.6741 17.0983H37.1025L38.6205 15.0355H29.5268Z" fill="#D80613"/>
</g>
<defs>
<clipPath id="clip0_5093_118710">
<rect width="45" height="28.7118" fill="white"/>
</clipPath>
</defs>
</svg>
