<svg width="24" height="17" viewBox="0 0 24 17" fill="none" xmlns="http://www.w3.org/2000/svg">
<g clip-path="url(#clip0_5463_119858)">
<path d="M8.29003 0.500023H20.16C20.7728 0.497303 21.3621 0.73612 21.8 1.16475C22.238 1.59337 22.4895 2.17729 22.5 2.79002C22.67 5.10002 23.42 15.64 23.42 15.64H0.530029C0.530029 15.64 0.92003 7.42002 12.2 7.42002C20.94 7.48002 22.84 7.51002 22.84 7.51002" stroke="black" stroke-miterlimit="10"/>
<path d="M12.2 12.37C12.7026 12.37 13.11 11.9626 13.11 11.46C13.11 10.9574 12.7026 10.55 12.2 10.55C11.6975 10.55 11.29 10.9574 11.29 11.46C11.29 11.9626 11.6975 12.37 12.2 12.37Z" fill="black"/>
</g>
<defs>
<clipPath id="clip0_5463_119858">
<rect width="23.95" height="16.13" fill="white"/>
</clipPath>
</defs>
</svg>
