<svg width="25" height="16" viewBox="0 0 25 16" fill="none" xmlns="http://www.w3.org/2000/svg">
<g clip-path="url(#clip0_5463_119860)">
<path d="M24.49 0.109985L20.9 15.47H4.06999L0.48999 0.109985" stroke="black" stroke-miterlimit="10"/>
<path d="M1.18005 2.09998C3.06005 2.09998 3.06006 4.09998 4.95006 4.09998C6.84006 4.09998 6.83005 2.09998 8.72005 2.09998C10.6101 2.09998 10.6001 4.09998 12.4801 4.09998C14.3601 4.09998 14.3701 2.09998 16.2501 2.09998C18.1301 2.09998 18.1401 4.09998 20.0301 4.09998C21.9201 4.09998 21.9201 2.09998 23.8001 2.09998" stroke="black" stroke-miterlimit="10"/>
<path d="M12.49 9.60998C12.9925 9.60998 13.4 9.20256 13.4 8.69998C13.4 8.1974 12.9925 7.78998 12.49 7.78998C11.9874 7.78998 11.58 8.1974 11.58 8.69998C11.58 9.20256 11.9874 9.60998 12.49 9.60998Z" fill="black"/>
</g>
<defs>
<clipPath id="clip0_5463_119860">
<rect width="24.97" height="15.97" fill="white"/>
</clipPath>
</defs>
</svg>
