<svg width="45" height="35" viewBox="0 0 45 35" fill="none" xmlns="http://www.w3.org/2000/svg">
<g clip-path="url(#clip0_5095_118748)">
<path d="M44.6825 0.362213H0.212402V27.1798H44.6825V0.362213Z" fill="#FECA09"/>
<path d="M23.43 17.3082H22.4171V14.397C22.4171 13.7844 22.1466 13.4535 21.6569 13.4155C21.3506 13.3909 20.8654 13.4646 20.5143 13.5429V17.3082H19.5015V12.8229C19.5015 12.8229 20.7335 12.5479 21.8469 12.5502C22.3277 12.5502 22.7122 12.7223 23.0007 13.0108C23.2891 13.2992 23.4322 13.6994 23.4322 14.2159V17.3082H23.43Z" fill="#3E3E3F"/>
<path d="M40.5172 17.3395C40.3517 17.382 40.1773 17.4021 39.9984 17.4021C39.4283 17.4021 39.0504 17.2746 38.8671 17.022C38.7195 16.823 38.6479 16.4429 38.6479 15.8861V11.2198H39.6474V12.539H40.5351V13.3551H39.6474V15.8235C39.6474 16.0896 39.6809 16.2662 39.7503 16.3512C39.8307 16.4608 40.0007 16.5144 40.26 16.5144C40.3338 16.5144 40.421 16.5077 40.5194 16.4965V17.3395H40.5172Z" fill="#3E3E3F"/>
<path d="M9.21415 14.2696C9.21415 14.2696 8.02912 14.7279 6.5646 14.7279C5.10231 14.7279 3.91504 14.2696 3.91504 14.2696C3.91504 14.2696 5.10231 13.8112 6.5646 13.8112C8.02912 13.8112 9.21415 14.2696 9.21415 14.2696Z" fill="white"/>
<path d="M12.8786 7.52607C12.8786 7.52607 11.8277 6.81728 11.0094 5.63001C10.191 4.44051 9.91602 3.2197 9.91602 3.2197C9.91602 3.2197 10.9669 3.92848 11.7852 5.11575C12.6036 6.30526 12.8786 7.52607 12.8786 7.52607Z" fill="white"/>
<path d="M10.1956 10.4372C10.1956 10.4372 8.92783 10.2964 7.63771 9.62336C6.34535 8.95035 5.51807 8.00009 5.51807 8.00009C5.51807 8.00009 6.78583 8.14095 8.07595 8.81396C9.36607 9.48474 10.1956 10.4372 10.1956 10.4372Z" fill="white"/>
<path d="M12.7512 16.4787C13.5024 16.4719 14.4102 15.8794 14.4102 15.8794C14.4102 15.8794 12.3062 15.2422 12.4404 13.3573C12.854 10.2606 15.3627 7.83014 18.4997 7.43885C18.1666 7.3919 17.8267 7.36954 17.4801 7.36954C13.5986 7.38742 10.4661 10.4864 10.484 14.2919C10.5019 18.0975 13.6612 21.1674 17.5427 21.1517C17.867 21.1495 18.1845 21.1249 18.4952 21.0824C15.7406 20.7381 13.5002 18.8353 12.6953 16.3177" fill="white"/>
<path d="M12.8786 20.9885C12.8786 20.9885 11.8277 21.6973 11.0094 22.8868C10.191 24.0763 9.91602 25.2971 9.91602 25.2971C9.91602 25.2971 10.9669 24.5883 11.7852 23.3988C12.6036 22.2093 12.8786 20.9885 12.8786 20.9885Z" fill="white"/>
<path d="M10.1956 18.0773C10.1956 18.0773 8.92783 18.2182 7.63771 18.8912C6.34535 19.5642 5.51807 20.5145 5.51807 20.5145C5.51807 20.5145 6.78583 20.3736 8.07595 19.7006C9.36607 19.0276 10.1956 18.0773 10.1956 18.0773Z" fill="white"/>
<path d="M18.4998 11.2131H17.4668V17.3037H18.4998V11.2131Z" fill="#3E3E3F"/>
<path d="M28.8655 13.2947C28.8655 13.9186 28.6732 14.4194 28.2864 14.7973C27.8995 15.1751 27.3763 15.3652 26.7167 15.3652H25.4646V17.2903H24.4316V11.1974H26.643C27.3585 11.1974 27.9085 11.383 28.2908 11.7564C28.6754 12.1298 28.8655 12.6418 28.8655 13.2947ZM27.8213 13.2947C27.8213 12.5569 27.4591 12.188 26.7391 12.188H25.4646V14.3836H26.719C27.0655 14.3836 27.3339 14.2875 27.5284 14.0974C27.7251 13.9074 27.8213 13.6391 27.8213 13.2947Z" fill="#3E3E3F"/>
<path d="M33.6482 14.8912C33.6482 15.6223 33.4425 16.2126 33.0333 16.662C32.6219 17.1092 32.0898 17.3328 31.4369 17.3328C30.784 17.3328 30.2496 17.1092 29.8405 16.662C29.4291 16.2148 29.2256 15.6245 29.2256 14.8912C29.2256 14.16 29.4313 13.5697 29.8405 13.1248C30.2496 12.6799 30.784 12.4585 31.4369 12.4585C32.0965 12.4585 32.6309 12.6821 33.0378 13.1248C33.4447 13.5697 33.6482 14.1578 33.6482 14.8912ZM32.6018 14.8956C32.6018 14.4373 32.4945 14.0728 32.2821 13.8045C32.0697 13.5362 31.7857 13.4021 31.4347 13.4021C31.0836 13.4021 30.7997 13.5384 30.5873 13.809C30.3748 14.0818 30.2675 14.4418 30.2675 14.8956C30.2675 15.354 30.3748 15.7185 30.5873 15.9868C30.7997 16.2551 31.0836 16.3892 31.4347 16.3892C31.7857 16.3892 32.0697 16.2551 32.2821 15.9868C32.4945 15.7162 32.6018 15.354 32.6018 14.8956Z" fill="#3E3E3F"/>
<path d="M38.0487 15.7341C38.0487 16.1947 37.8698 16.5726 37.512 16.8699C37.1543 17.1673 36.6825 17.3149 36.0967 17.3149C35.1822 17.3149 34.4757 17.0421 33.9771 16.4988L34.7462 15.8548C35.1285 16.2305 35.5757 16.4183 36.0878 16.4183C36.3717 16.4183 36.5975 16.3624 36.763 16.2506C36.9285 16.1388 37.0134 15.9979 37.0134 15.828C37.0134 15.6335 36.9173 15.5016 36.7272 15.4278C36.6154 15.3853 36.3203 15.3272 35.8373 15.2556C35.2582 15.1706 34.8446 15.0432 34.5964 14.8755C34.3057 14.6698 34.1626 14.3612 34.1626 13.9498C34.1626 13.5317 34.3393 13.1829 34.6903 12.9012C35.0413 12.6195 35.5109 12.4786 36.0989 12.4786C36.8077 12.4786 37.4137 12.7111 37.9145 13.1784L37.313 13.8134C36.9486 13.4937 36.5349 13.3327 36.0721 13.3327C35.4796 13.3327 35.1844 13.5004 35.1844 13.8313C35.1844 14.0259 35.3208 14.1578 35.5914 14.2316C35.9737 14.2919 36.3538 14.3545 36.7295 14.4216C37.6059 14.5826 38.0487 15.0208 38.0487 15.7341Z" fill="#3E3E3F"/>
<path d="M44.6825 27.1797H0.212402V34.7237H44.6825V27.1797Z" fill="#404042"/>
<path d="M16.1253 31.3252L15.5574 31.9087V32.8232H14.8911V29.2435H15.5574V31.0792L17.326 29.2435H18.0728L16.5703 30.8444L18.1645 32.8232H17.3886L16.1253 31.3252Z" fill="white"/>
<path d="M21.0687 30.0932V32.8232H20.4606V32.4744C20.2571 32.7248 19.9329 32.859 19.5819 32.859C18.882 32.859 18.4058 32.4744 18.4058 31.6516V30.0909H19.0452V31.5644C19.0452 32.0608 19.28 32.2956 19.6847 32.2956C20.1297 32.2956 20.4315 32.0183 20.4315 31.4727V30.0909H21.0687V30.0932Z" fill="white"/>
<path d="M23.345 30.0619V30.67C23.2891 30.6588 23.2421 30.6544 23.1974 30.6544C22.7122 30.6544 22.4036 30.9406 22.4036 31.4973V32.821H21.7642V30.0909H22.3723V30.4889C22.5579 30.205 22.8888 30.0619 23.345 30.0619Z" fill="white"/>
<path d="M23.855 29.2592C23.855 29.0445 24.0294 28.8768 24.2642 28.8768C24.4989 28.8768 24.6733 29.0356 24.6733 29.2458C24.6733 29.4693 24.5056 29.6438 24.2642 29.6438C24.0271 29.6415 23.855 29.4738 23.855 29.2592ZM23.9399 30.0932H24.5794V32.8232H23.9399V30.0932Z" fill="white"/>
<path d="M27.8596 31.6628H25.7176C25.7936 32.0608 26.1268 32.3179 26.603 32.3179C26.9093 32.3179 27.1508 32.2218 27.3453 32.0205L27.6874 32.414C27.4415 32.7047 27.0591 32.859 26.5874 32.859C25.6729 32.859 25.0781 32.2709 25.0781 31.4571C25.0781 30.6432 25.6773 30.0619 26.489 30.0619C27.2872 30.0619 27.8685 30.6186 27.8685 31.4727C27.8685 31.5241 27.8641 31.6002 27.8596 31.6628ZM25.7109 31.238H27.2604C27.2089 30.8444 26.9071 30.5739 26.489 30.5739C26.0731 30.5739 25.7735 30.84 25.7109 31.238Z" fill="white"/>
<path d="M29.9431 30.0619V30.67C29.8872 30.6588 29.8402 30.6544 29.7955 30.6544C29.3103 30.6544 29.0018 30.9406 29.0018 31.4973V32.821H28.3623V30.0909H28.9705V30.4889C29.1538 30.205 29.487 30.0619 29.9431 30.0619Z" fill="white"/>
</g>
<defs>
<clipPath id="clip0_5095_118748">
<rect width="45" height="34.8601" fill="white"/>
</clipPath>
</defs>
</svg>
