<svg width="45" height="35" viewBox="0 0 45 35" fill="none" xmlns="http://www.w3.org/2000/svg">
<g clip-path="url(#clip0_5093_118715)">
<path d="M44.7338 27.0657H0.263672V34.6097H44.7338V27.0657Z" fill="#404042"/>
<path d="M5.18937 30.3436C5.18937 31.0479 4.6684 31.4817 3.8277 31.4817H3.1055V32.4051H2.51074V29.2055H3.8277C4.6684 29.2033 5.18937 29.6348 5.18937 30.3436ZM4.59014 30.3436C4.59014 29.9411 4.3196 29.7086 3.79863 29.7086H3.10326V30.9786H3.79863C4.3196 30.9786 4.59014 30.7438 4.59014 30.3436Z" fill="white"/>
<path d="M7.74732 30.9741V32.4051H7.20847V32.1077C7.07208 32.3179 6.806 32.4364 6.43931 32.4364C5.88257 32.4364 5.5293 32.1301 5.5293 31.7053C5.5293 31.2983 5.80431 30.9786 6.5444 30.9786H7.17493V30.9428C7.17493 30.6097 6.9737 30.4129 6.56676 30.4129C6.29174 30.4129 6.01002 30.5046 5.82667 30.6544L5.60308 30.2385C5.86468 30.0373 6.24255 29.9366 6.63607 29.9366C7.34039 29.9366 7.74732 30.2698 7.74732 30.9741ZM7.17716 31.6404V31.3565H6.58688C6.19783 31.3565 6.09275 31.5018 6.09275 31.6807C6.09275 31.8864 6.26715 32.0183 6.56005 32.0183C6.83731 32.0205 7.08102 31.8931 7.17716 31.6404Z" fill="white"/>
<path d="M8.29932 31.1843C8.29932 30.4531 8.84712 29.9366 9.62074 29.9366C10.097 29.9366 10.4749 30.1334 10.6627 30.5023L10.2244 30.7595C10.0791 30.5269 9.85775 30.4218 9.61627 30.4218C9.19592 30.4218 8.87618 30.7147 8.87618 31.1843C8.87618 31.6605 9.19592 31.9467 9.61627 31.9467C9.85775 31.9467 10.0769 31.8416 10.2244 31.6091L10.6627 31.864C10.4749 32.2307 10.0948 32.4364 9.62074 32.4364C8.84935 32.4364 8.29932 31.9154 8.29932 31.1843Z" fill="white"/>
<path d="M13.0398 31.9468V32.4051H10.9336V32.0429L12.2729 30.4196H10.9604V29.9635H13.0041V30.3235L11.6603 31.9468H13.0398Z" fill="white"/>
<path d="M14.5622 31.3565L14.1373 31.7589V32.4051H13.5649V29.011H14.1373V31.0591L15.3201 29.9635H16.0066L14.987 30.9875L16.1027 32.4051H15.4073L14.5622 31.3565Z" fill="white"/>
<path d="M16.1699 31.1843C16.1699 30.4531 16.7177 29.9366 17.469 29.9366C18.227 29.9366 18.7725 30.4531 18.7725 31.1843C18.7725 31.9154 18.2292 32.4364 17.469 32.4364C16.7177 32.4364 16.1699 31.9154 16.1699 31.1843ZM18.1957 31.1843C18.1957 30.7192 17.8849 30.4218 17.469 30.4218C17.0576 30.4218 16.7468 30.7192 16.7468 31.1843C16.7468 31.6516 17.0576 31.9467 17.469 31.9467C17.8849 31.9467 18.1957 31.6494 18.1957 31.1843Z" fill="white"/>
<path d="M23.4007 31.0054V32.4051H22.8283V31.0792C22.8283 30.6454 22.627 30.4353 22.2805 30.4353C21.9048 30.4353 21.6455 30.6812 21.6455 31.1664V32.4051H21.0731V31.0792C21.0731 30.6454 20.8718 30.4353 20.5253 30.4353C20.1452 30.4353 19.8903 30.6812 19.8903 31.1664V32.4051H19.3179V29.9635H19.8612V30.2743C20.0445 30.0551 20.3285 29.9366 20.6617 29.9366C21.0172 29.9366 21.3145 30.0686 21.4845 30.3436C21.6812 30.0909 22.0099 29.9366 22.399 29.9366C22.9892 29.9366 23.4007 30.2698 23.4007 31.0054Z" fill="white"/>
<path d="M26.1736 30.9741V32.4051H25.6347V32.1077C25.4983 32.3179 25.2323 32.4364 24.8656 32.4364C24.3088 32.4364 23.9556 32.1301 23.9556 31.7053C23.9556 31.2983 24.2306 30.9786 24.9707 30.9786H25.6012V30.9428C25.6012 30.6097 25.4 30.4129 24.993 30.4129C24.718 30.4129 24.4363 30.5046 24.2529 30.6544L24.0294 30.2385C24.291 30.0373 24.6688 29.9366 25.0623 29.9366C25.7689 29.9366 26.1736 30.2698 26.1736 30.9741ZM25.6034 31.6404V31.3565H25.0132C24.6241 31.3565 24.519 31.5018 24.519 31.6807C24.519 31.8864 24.6934 32.0183 24.9863 32.0183C25.2658 32.0205 25.5073 31.8931 25.6034 31.6404Z" fill="white"/>
<path d="M28.3735 32.2709C28.2371 32.3805 28.0314 32.4364 27.8257 32.4364C27.2913 32.4364 26.985 32.1524 26.985 31.6136V30.4397H26.5825V29.9814H26.985V29.4246H27.5574V29.9814H28.2125V30.4397H27.5574V31.6002C27.5574 31.8372 27.6759 31.9669 27.895 31.9669C28.0135 31.9669 28.1275 31.9356 28.2147 31.8662L28.3735 32.2709Z" fill="white"/>
<path d="M31.0834 29.9635L29.9409 32.6019C29.7173 33.1542 29.4065 33.3241 28.9996 33.3241C28.7581 33.3241 28.501 33.2414 28.3467 33.1005L28.5747 32.6801C28.6843 32.7852 28.8408 32.8501 28.9951 32.8501C29.1963 32.8501 29.3148 32.7539 29.4244 32.5124L29.4646 32.4163L28.4003 29.9657H28.9951L29.7642 31.7724L30.5379 29.9657H31.0834V29.9635Z" fill="white"/>
<path d="M34.8442 31.902V32.4051H32.4853V32.0071L33.7553 30.7997C34.0661 30.5024 34.122 30.3145 34.122 30.1379C34.122 29.845 33.9207 29.6751 33.5272 29.6751C33.2164 29.6751 32.9548 29.7802 32.7782 30.0082L32.3623 29.6885C32.6083 29.3553 33.0532 29.1586 33.5786 29.1586C34.274 29.1586 34.7212 29.5096 34.7212 30.0775C34.7212 30.3883 34.634 30.6723 34.1913 31.0882L33.3372 31.902H34.8442Z" fill="white"/>
<path d="M37.97 31.6762H37.4043V32.4051H36.8275V31.6762H35.0723V31.2648L36.6486 29.2033H37.2836L35.7989 31.1754H36.8453V30.5292H37.4043V31.1754H37.97V31.6762Z" fill="white"/>
<path d="M39.5063 28.5549H40.0183L38.5091 32.8612H37.9971L39.5063 28.5549Z" fill="white"/>
<path d="M42.4888 29.2033V29.6013L41.2456 32.4051H40.6106L41.8135 29.7064H40.5569V30.2519H40.0024V29.2033H42.4888Z" fill="white"/>
<path d="M44.7338 0.248199H0.263672V27.0658H44.7338V0.248199Z" fill="#FECA09"/>
<path d="M23.4812 17.1964H22.4684V14.2853C22.4684 13.6726 22.1978 13.3417 21.7082 13.3037C21.4018 13.2791 20.9166 13.3529 20.5656 13.4311V17.1964H19.5527V12.7112C19.5527 12.7112 20.7847 12.4362 21.8982 12.4384C22.3789 12.4384 22.7635 12.6106 23.0519 12.899C23.3404 13.1874 23.4835 13.5877 23.4835 14.1042V17.1964H23.4812Z" fill="#3E3E3F"/>
<path d="M40.5684 17.2255C40.403 17.268 40.2286 17.2881 40.0497 17.2881C39.4796 17.2881 39.1017 17.1607 38.9183 16.908C38.7708 16.709 38.6992 16.3289 38.6992 15.7722V11.1058H39.6987V12.425H40.5863V13.2411H39.6987V15.7095C39.6987 15.9756 39.7322 16.1523 39.8015 16.2372C39.882 16.3468 40.0519 16.4004 40.3113 16.4004C40.3851 16.4004 40.4723 16.3937 40.5707 16.3826V17.2255H40.5684Z" fill="#3E3E3F"/>
<path d="M9.26542 14.1578C9.26542 14.1578 8.08039 14.6162 6.61587 14.6162C5.15358 14.6162 3.96631 14.1578 3.96631 14.1578C3.96631 14.1578 5.15358 13.6995 6.61587 13.6995C8.08039 13.6995 9.26542 14.1578 9.26542 14.1578Z" fill="white"/>
<path d="M12.9299 7.41431C12.9299 7.41431 11.879 6.70553 11.0606 5.51826C10.2423 4.32875 9.96729 3.10794 9.96729 3.10794C9.96729 3.10794 11.0182 3.81673 11.8365 5.004C12.6526 6.1935 12.9299 7.41431 12.9299 7.41431Z" fill="white"/>
<path d="M10.2449 10.3232C10.2449 10.3232 8.97715 10.1824 7.68703 9.50935C6.39467 8.83634 5.56738 7.88608 5.56738 7.88608C5.56738 7.88608 6.83515 8.02694 8.12527 8.69995C9.41763 9.37296 10.2449 10.3232 10.2449 10.3232Z" fill="white"/>
<path d="M12.8024 16.3647C13.5537 16.358 14.4615 15.7654 14.4615 15.7654C14.4615 15.7654 12.3575 15.1282 12.4917 13.2433C12.9053 10.1466 15.414 7.71615 18.551 7.32487C18.2178 7.27791 17.878 7.25555 17.5314 7.25555C13.6499 7.27344 10.5173 10.3724 10.5352 14.1757C10.5531 17.9812 13.7125 21.0511 17.594 21.0355C17.9182 21.0333 18.2357 21.0087 18.5465 20.9662C15.7919 20.6218 13.5515 18.7191 12.7466 16.2014" fill="white"/>
<path d="M12.9299 20.8745C12.9299 20.8745 11.879 21.5833 11.0606 22.7728C10.2423 23.9623 9.96729 25.1831 9.96729 25.1831C9.96729 25.1831 11.0182 24.4743 11.8365 23.2848C12.6526 22.0953 12.9299 20.8745 12.9299 20.8745Z" fill="white"/>
<path d="M10.2449 17.9656C10.2449 17.9656 8.97715 18.1065 7.68703 18.7795C6.39467 19.4525 5.56738 20.405 5.56738 20.405C5.56738 20.405 6.83515 20.2641 8.12527 19.5911C9.41763 18.9159 10.2449 17.9656 10.2449 17.9656Z" fill="white"/>
<path d="M18.5491 11.1013H17.5161V17.1919H18.5491V11.1013Z" fill="#3E3E3F"/>
<path d="M28.9167 13.183C28.9167 13.8068 28.7244 14.3076 28.3376 14.6855C27.9508 15.0634 27.4276 15.2534 26.768 15.2534H25.5159V17.1786H24.4829V11.0857H26.6942C27.4097 11.0857 27.9598 11.2713 28.3421 11.6447C28.7244 12.0158 28.9167 12.5279 28.9167 13.183ZM27.8726 13.183C27.8726 12.4451 27.5103 12.0762 26.7904 12.0762H25.5159V14.2719H26.7703C27.1168 14.2719 27.3851 14.1757 27.5797 13.9857C27.7764 13.7956 27.8726 13.5273 27.8726 13.183Z" fill="#3E3E3F"/>
<path d="M33.6995 14.7772C33.6995 15.5083 33.4938 16.0986 33.0846 16.548C32.6732 16.9952 32.1411 17.2188 31.4882 17.2188C30.8353 17.2188 30.3009 16.9952 29.8917 16.548C29.4803 16.1008 29.2769 15.5106 29.2769 14.7772C29.2769 14.046 29.4826 13.4558 29.8917 13.0108C30.3009 12.5659 30.8353 12.3445 31.4882 12.3445C32.1478 12.3445 32.6821 12.5681 33.0891 13.0108C33.496 13.4558 33.6995 14.046 33.6995 14.7772ZM32.6531 14.7817C32.6531 14.3233 32.5458 13.9588 32.3333 13.6905C32.1209 13.4222 31.837 13.2881 31.4859 13.2881C31.1349 13.2881 30.8509 13.4245 30.6385 13.695C30.4261 13.9678 30.3188 14.3278 30.3188 14.7817C30.3188 15.24 30.4261 15.6045 30.6385 15.8728C30.8509 16.1411 31.1349 16.2752 31.4859 16.2752C31.837 16.2752 32.1209 16.1411 32.3333 15.8728C32.5458 15.6045 32.6531 15.24 32.6531 14.7817Z" fill="#3E3E3F"/>
<path d="M38.0999 15.6223C38.0999 16.0829 37.921 16.4608 37.5633 16.7582C37.2055 17.0556 36.7338 17.2031 36.148 17.2031C35.2335 17.2031 34.5269 16.9304 34.0283 16.387L34.7975 15.7431C35.1798 16.1187 35.627 16.3065 36.139 16.3065C36.423 16.3065 36.6488 16.2506 36.8143 16.1388C36.9797 16.027 37.0647 15.8862 37.0647 15.7163C37.0647 15.5217 36.9685 15.3898 36.7785 15.316C36.6667 15.2735 36.3715 15.2154 35.8886 15.1439C35.3095 15.0589 34.8959 14.9314 34.6477 14.7638C34.357 14.558 34.2139 14.2495 34.2139 13.8381C34.2139 13.42 34.3905 13.0712 34.7416 12.7894C35.0926 12.5077 35.5621 12.3669 36.1502 12.3669C36.859 12.3669 37.4649 12.5994 37.9658 13.0667L37.3643 13.7017C36.9998 13.382 36.5862 13.221 36.1234 13.221C35.5308 13.221 35.2357 13.3887 35.2357 13.7196C35.2357 13.9141 35.3721 14.046 35.6426 14.1198C36.025 14.1802 36.4051 14.2428 36.7807 14.3099C37.6572 14.4686 38.0999 14.9069 38.0999 15.6223Z" fill="#3E3E3F"/>
</g>
<defs>
<clipPath id="clip0_5093_118715">
<rect width="45" height="34.8601" fill="white"/>
</clipPath>
</defs>
</svg>
