<svg width="55" height="24" viewBox="0 0 55 24" fill="none" xmlns="http://www.w3.org/2000/svg">
<path d="M10.395 3.0087C11.0425 2.19878 11.4819 1.11129 11.366 0C10.4181 0.0471336 9.2614 0.625361 8.59171 1.43592C7.9904 2.13004 7.4582 3.26306 7.59694 4.32776C8.66101 4.42006 9.72409 3.7959 10.395 3.0087Z" fill="black"/>
<path d="M11.3537 4.53571C9.80847 4.44366 8.4946 5.41273 7.75665 5.41273C7.0183 5.41273 5.88826 4.58209 4.66602 4.60448C3.07521 4.62784 1.59912 5.5273 0.79185 6.95786C-0.868567 9.81969 0.353666 14.0648 1.96833 16.3956C2.75245 17.5487 3.69745 18.8184 4.94263 18.7728C6.11911 18.7266 6.58025 18.011 8.01031 18.011C9.43933 18.011 9.85472 18.7728 11.1001 18.7497C12.3916 18.7266 13.199 17.596 13.9831 16.4417C14.8826 15.1272 15.2509 13.858 15.274 13.7883C15.2509 13.7652 12.7837 12.8188 12.7608 9.98072C12.7375 7.60439 14.6978 6.47407 14.7901 6.40397C13.6831 4.7667 11.9534 4.58209 11.3537 4.53571Z" fill="black"/>
<path d="M24.8089 1.31965C28.1676 1.31965 30.5063 3.63478 30.5063 7.00545C30.5063 10.3882 28.1195 12.7153 24.7247 12.7153H21.0061V18.629H18.3193V1.31964H24.8089V1.31965ZM21.0061 10.4601H24.0889C26.4281 10.4601 27.7594 9.20073 27.7594 7.01748C27.7594 4.83446 26.4281 3.58689 24.1009 3.58689H21.0061V10.4601Z" fill="black"/>
<path d="M31.208 15.0424C31.208 12.8351 32.8994 11.4797 35.8984 11.3117L39.3529 11.1079V10.1363C39.3529 8.73282 38.4052 7.89316 36.8221 7.89316C35.3223 7.89316 34.3866 8.61274 34.159 9.74046H31.7119C31.8559 7.46118 33.7989 5.78186 36.9179 5.78186C39.9767 5.78186 41.9318 7.40125 41.9318 9.93227V18.629H39.4487V16.5538H39.389C38.6574 17.9573 37.0618 18.8448 35.4065 18.8448C32.9355 18.8448 31.208 17.3094 31.208 15.0424ZM39.3529 13.9029V12.9073L36.246 13.0991C34.6985 13.2071 33.823 13.8909 33.823 14.9705C33.823 16.0739 34.7346 16.7937 36.1261 16.7937C37.9373 16.7937 39.3529 15.5461 39.3529 13.9029Z" fill="black"/>
<path d="M44.2764 23.2712V21.1719C44.468 21.2198 44.8997 21.2198 45.1158 21.2198C46.3153 21.2198 46.9631 20.7161 47.3588 19.4207C47.3588 19.3966 47.5869 18.653 47.5869 18.6409L43.0288 6.0097H45.8354L49.0265 16.2779H49.0742L52.2653 6.0097H55.0002L50.2736 19.2885C49.1945 22.3476 47.9469 23.3311 45.3319 23.3311C45.1158 23.3311 44.468 23.3071 44.2764 23.2712Z" fill="black"/>
</svg>
